solid OpenSCAD_Model
  facet normal 1 -0 0
    outer loop
      vertex 98.0933 21 2
      vertex 98.0933 26.26 -2
      vertex 98.0933 26.26 2
    endloop
  endfacet
  facet normal 1 0 0
    outer loop
      vertex 98.0933 26.26 -2
      vertex 98.0933 21 2
      vertex 98.0933 21 -2
    endloop
  endfacet
  facet normal 0 -1 0
    outer loop
      vertex 98.0933 26.26 -2
      vertex 103.333 26.26 2
      vertex 98.0933 26.26 2
    endloop
  endfacet
  facet normal 0 -1 -0
    outer loop
      vertex 103.333 26.26 2
      vertex 98.0933 26.26 -2
      vertex 103.333 26.26 -2
    endloop
  endfacet
  facet normal 1 -0 0
    outer loop
      vertex 98.0933 31.49 2
      vertex 98.0933 36.76 -2
      vertex 98.0933 36.76 2
    endloop
  endfacet
  facet normal 1 0 0
    outer loop
      vertex 98.0933 36.76 -2
      vertex 98.0933 31.49 2
      vertex 98.0933 31.49 -2
    endloop
  endfacet
  facet normal 0 -1 0
    outer loop
      vertex 98.0933 36.76 -2
      vertex 103.333 36.76 2
      vertex 98.0933 36.76 2
    endloop
  endfacet
  facet normal 0 -1 -0
    outer loop
      vertex 103.333 36.76 2
      vertex 98.0933 36.76 -2
      vertex 103.333 36.76 -2
    endloop
  endfacet
  facet normal 0 1 -0
    outer loop
      vertex 103.333 31.49 -2
      vertex 98.0933 31.49 2
      vertex 103.333 31.49 2
    endloop
  endfacet
  facet normal 0 1 0
    outer loop
      vertex 98.0933 31.49 2
      vertex 103.333 31.49 -2
      vertex 98.0933 31.49 -2
    endloop
  endfacet
  facet normal 1 -0 0
    outer loop
      vertex 103.333 36.76 2
      vertex 103.333 42 -2
      vertex 103.333 42 2
    endloop
  endfacet
  facet normal 1 0 0
    outer loop
      vertex 103.333 42 -2
      vertex 103.333 36.76 2
      vertex 103.333 36.76 -2
    endloop
  endfacet
  facet normal 1 -0 0
    outer loop
      vertex 103.333 26.26 2
      vertex 103.333 31.49 -2
      vertex 103.333 31.49 2
    endloop
  endfacet
  facet normal 1 0 0
    outer loop
      vertex 103.333 31.49 -2
      vertex 103.333 26.26 2
      vertex 103.333 26.26 -2
    endloop
  endfacet
  facet normal 0 0 1
    outer loop
      vertex 103.333 42 2
      vertex 98.0933 36.76 2
      vertex 103.333 36.76 2
    endloop
  endfacet
  facet normal 0 0 1
    outer loop
      vertex -103.333 42 2
      vertex 98.0933 31.49 2
      vertex 98.0933 36.76 2
    endloop
  endfacet
  facet normal 0 0 1
    outer loop
      vertex 98.0933 31.49 2
      vertex -103.333 21 2
      vertex 98.0933 26.26 2
    endloop
  endfacet
  facet normal -0 0 1
    outer loop
      vertex -103.333 42 2
      vertex 98.0933 36.76 2
      vertex 103.333 42 2
    endloop
  endfacet
  facet normal 0 0 1
    outer loop
      vertex 98.0933 31.49 2
      vertex -103.333 42 2
      vertex -103.333 21 2
    endloop
  endfacet
  facet normal 0 0 1
    outer loop
      vertex 98.0933 26.26 2
      vertex -103.333 21 2
      vertex 98.0933 21 2
    endloop
  endfacet
  facet normal -0 0 1
    outer loop
      vertex 98.0933 31.49 2
      vertex 103.333 26.26 2
      vertex 103.333 31.49 2
    endloop
  endfacet
  facet normal 0 0 1
    outer loop
      vertex 103.333 26.26 2
      vertex 98.0933 31.49 2
      vertex 98.0933 26.26 2
    endloop
  endfacet
  facet normal 0 0 -1
    outer loop
      vertex -103.333 21 -2
      vertex 98.0933 26.26 -2
      vertex 98.0933 21 -2
    endloop
  endfacet
  facet normal -0 0 -1
    outer loop
      vertex 98.0933 26.26 -2
      vertex -103.333 21 -2
      vertex 98.0933 31.49 -2
    endloop
  endfacet
  facet normal 0 0 -1
    outer loop
      vertex -103.333 42 -2
      vertex 98.0933 31.49 -2
      vertex -103.333 21 -2
    endloop
  endfacet
  facet normal 0 0 -1
    outer loop
      vertex 98.0933 26.26 -2
      vertex 103.333 31.49 -2
      vertex 103.333 26.26 -2
    endloop
  endfacet
  facet normal -0 0 -1
    outer loop
      vertex 103.333 31.49 -2
      vertex 98.0933 26.26 -2
      vertex 98.0933 31.49 -2
    endloop
  endfacet
  facet normal 0 0 -1
    outer loop
      vertex 98.0933 36.76 -2
      vertex 103.333 42 -2
      vertex 103.333 36.76 -2
    endloop
  endfacet
  facet normal 0 0 -1
    outer loop
      vertex 98.0933 31.49 -2
      vertex -103.333 42 -2
      vertex 98.0933 36.76 -2
    endloop
  endfacet
  facet normal 0 0 -1
    outer loop
      vertex 98.0933 36.76 -2
      vertex -103.333 42 -2
      vertex 103.333 42 -2
    endloop
  endfacet
  facet normal -1 0 0
    outer loop
      vertex -103.333 21 -2
      vertex -103.333 42 2
      vertex -103.333 42 -2
    endloop
  endfacet
  facet normal -1 -0 0
    outer loop
      vertex -103.333 42 2
      vertex -103.333 21 -2
      vertex -103.333 21 2
    endloop
  endfacet
  facet normal 0 1 -0
    outer loop
      vertex 103.333 42 -2
      vertex -103.333 42 2
      vertex 103.333 42 2
    endloop
  endfacet
  facet normal 0 1 0
    outer loop
      vertex -103.333 42 2
      vertex 103.333 42 -2
      vertex -103.333 42 -2
    endloop
  endfacet
  facet normal 0 -1 0
    outer loop
      vertex -103.333 21 -2
      vertex 98.0933 21 2
      vertex -103.333 21 2
    endloop
  endfacet
  facet normal 0 -1 -0
    outer loop
      vertex 98.0933 21 2
      vertex -103.333 21 -2
      vertex 98.0933 21 -2
    endloop
  endfacet
  facet normal 1 -0 0
    outer loop
      vertex 98.0933 -10.5 2
      vertex 98.0933 -5.24 -2
      vertex 98.0933 -5.24 2
    endloop
  endfacet
  facet normal 1 0 0
    outer loop
      vertex 98.0933 -5.24 -2
      vertex 98.0933 -10.5 2
      vertex 98.0933 -10.5 -2
    endloop
  endfacet
  facet normal 0 -1 0
    outer loop
      vertex 98.0933 -5.24 -2
      vertex 103.333 -5.24 2
      vertex 98.0933 -5.24 2
    endloop
  endfacet
  facet normal 0 -1 -0
    outer loop
      vertex 103.333 -5.24 2
      vertex 98.0933 -5.24 -2
      vertex 103.333 -5.24 -2
    endloop
  endfacet
  facet normal 1 -0 0
    outer loop
      vertex 98.0933 -0.00999928 2
      vertex 98.0933 5.26 -2
      vertex 98.0933 5.26 2
    endloop
  endfacet
  facet normal 1 0 0
    outer loop
      vertex 98.0933 5.26 -2
      vertex 98.0933 -0.00999928 2
      vertex 98.0933 -0.00999928 -2
    endloop
  endfacet
  facet normal 0 -1 0
    outer loop
      vertex 98.0933 5.26 -2
      vertex 103.333 5.26 2
      vertex 98.0933 5.26 2
    endloop
  endfacet
  facet normal 0 -1 -0
    outer loop
      vertex 103.333 5.26 2
      vertex 98.0933 5.26 -2
      vertex 103.333 5.26 -2
    endloop
  endfacet
  facet normal 0 1 -0
    outer loop
      vertex 103.333 -0.00999928 -2
      vertex 98.0933 -0.00999928 2
      vertex 103.333 -0.00999928 2
    endloop
  endfacet
  facet normal 0 1 0
    outer loop
      vertex 98.0933 -0.00999928 2
      vertex 103.333 -0.00999928 -2
      vertex 98.0933 -0.00999928 -2
    endloop
  endfacet
  facet normal -1 0 0
    outer loop
      vertex -98.0933 5.24 -2
      vertex -98.0933 10.5 2
      vertex -98.0933 10.5 -2
    endloop
  endfacet
  facet normal -1 -0 0
    outer loop
      vertex -98.0933 10.5 2
      vertex -98.0933 5.24 -2
      vertex -98.0933 5.24 2
    endloop
  endfacet
  facet normal 0 1 -0
    outer loop
      vertex -98.0933 5.24 -2
      vertex -103.333 5.24 2
      vertex -98.0933 5.24 2
    endloop
  endfacet
  facet normal 0 1 0
    outer loop
      vertex -103.333 5.24 2
      vertex -98.0933 5.24 -2
      vertex -103.333 5.24 -2
    endloop
  endfacet
  facet normal -1 0 0
    outer loop
      vertex -98.0933 -5.26 -2
      vertex -98.0933 0.00999928 2
      vertex -98.0933 0.00999928 -2
    endloop
  endfacet
  facet normal -1 -0 0
    outer loop
      vertex -98.0933 0.00999928 2
      vertex -98.0933 -5.26 -2
      vertex -98.0933 -5.26 2
    endloop
  endfacet
  facet normal 0 1 -0
    outer loop
      vertex -98.0933 -5.26 -2
      vertex -103.333 -5.26 2
      vertex -98.0933 -5.26 2
    endloop
  endfacet
  facet normal 0 1 0
    outer loop
      vertex -103.333 -5.26 2
      vertex -98.0933 -5.26 -2
      vertex -103.333 -5.26 -2
    endloop
  endfacet
  facet normal 0 -1 0
    outer loop
      vertex -103.333 0.00999928 -2
      vertex -98.0933 0.00999928 2
      vertex -103.333 0.00999928 2
    endloop
  endfacet
  facet normal 0 -1 -0
    outer loop
      vertex -98.0933 0.00999928 2
      vertex -103.333 0.00999928 -2
      vertex -98.0933 0.00999928 -2
    endloop
  endfacet
  facet normal 1 -0 0
    outer loop
      vertex 103.333 5.26 2
      vertex 103.333 10.5 -2
      vertex 103.333 10.5 2
    endloop
  endfacet
  facet normal 1 0 0
    outer loop
      vertex 103.333 10.5 -2
      vertex 103.333 5.26 2
      vertex 103.333 5.26 -2
    endloop
  endfacet
  facet normal 1 -0 0
    outer loop
      vertex 103.333 -5.24 2
      vertex 103.333 -0.00999928 -2
      vertex 103.333 -0.00999928 2
    endloop
  endfacet
  facet normal 1 0 0
    outer loop
      vertex 103.333 -0.00999928 -2
      vertex 103.333 -5.24 2
      vertex 103.333 -5.24 -2
    endloop
  endfacet
  facet normal -0 0 1
    outer loop
      vertex -103.333 5.24 2
      vertex -98.0933 0.00999928 2
      vertex -98.0933 5.24 2
    endloop
  endfacet
  facet normal 0 0 1
    outer loop
      vertex -98.0933 0.00999928 2
      vertex -103.333 5.24 2
      vertex -103.333 0.00999928 2
    endloop
  endfacet
  facet normal 0 0 1
    outer loop
      vertex 103.333 10.5 2
      vertex 98.0933 5.26 2
      vertex 103.333 5.26 2
    endloop
  endfacet
  facet normal -0 0 1
    outer loop
      vertex -98.0933 0.00999928 2
      vertex 98.0933 -0.00999928 2
      vertex 98.0933 5.26 2
    endloop
  endfacet
  facet normal 0 0 1
    outer loop
      vertex 98.0933 -0.00999928 2
      vertex -98.0933 0.00999928 2
      vertex 98.0933 -5.24 2
    endloop
  endfacet
  facet normal -0 0 1
    outer loop
      vertex -98.0933 10.5 2
      vertex 98.0933 5.26 2
      vertex 103.333 10.5 2
    endloop
  endfacet
  facet normal 0 0 1
    outer loop
      vertex -98.0933 5.24 2
      vertex 98.0933 5.26 2
      vertex -98.0933 10.5 2
    endloop
  endfacet
  facet normal 0 0 1
    outer loop
      vertex -98.0933 0.00999928 2
      vertex 98.0933 5.26 2
      vertex -98.0933 5.24 2
    endloop
  endfacet
  facet normal 0 0 1
    outer loop
      vertex -98.0933 -5.26 2
      vertex 98.0933 -5.24 2
      vertex -98.0933 0.00999928 2
    endloop
  endfacet
  facet normal 0 0 1
    outer loop
      vertex 98.0933 -5.24 2
      vertex -98.0933 -5.26 2
      vertex 98.0933 -10.5 2
    endloop
  endfacet
  facet normal 0 0 1
    outer loop
      vertex -103.333 -10.5 2
      vertex -98.0933 -5.26 2
      vertex -103.333 -5.26 2
    endloop
  endfacet
  facet normal 0 0 1
    outer loop
      vertex -98.0933 -5.26 2
      vertex -103.333 -10.5 2
      vertex 98.0933 -10.5 2
    endloop
  endfacet
  facet normal -0 0 1
    outer loop
      vertex 98.0933 -0.00999928 2
      vertex 103.333 -5.24 2
      vertex 103.333 -0.00999928 2
    endloop
  endfacet
  facet normal 0 0 1
    outer loop
      vertex 103.333 -5.24 2
      vertex 98.0933 -0.00999928 2
      vertex 98.0933 -5.24 2
    endloop
  endfacet
  facet normal 0 0 -1
    outer loop
      vertex -103.333 0.00999928 -2
      vertex -98.0933 5.24 -2
      vertex -98.0933 0.00999928 -2
    endloop
  endfacet
  facet normal -0 0 -1
    outer loop
      vertex -98.0933 5.24 -2
      vertex -103.333 0.00999928 -2
      vertex -103.333 5.24 -2
    endloop
  endfacet
  facet normal 0 0 -1
    outer loop
      vertex -98.0933 -5.26 -2
      vertex 98.0933 -5.24 -2
      vertex 98.0933 -10.5 -2
    endloop
  endfacet
  facet normal -0 0 -1
    outer loop
      vertex 98.0933 -5.24 -2
      vertex -98.0933 -5.26 -2
      vertex 98.0933 -0.00999928 -2
    endloop
  endfacet
  facet normal 0 0 -1
    outer loop
      vertex -98.0933 0.00999928 -2
      vertex 98.0933 -0.00999928 -2
      vertex -98.0933 -5.26 -2
    endloop
  endfacet
  facet normal 0 0 -1
    outer loop
      vertex -103.333 -10.5 -2
      vertex -98.0933 -5.26 -2
      vertex 98.0933 -10.5 -2
    endloop
  endfacet
  facet normal -0 0 -1
    outer loop
      vertex -98.0933 -5.26 -2
      vertex -103.333 -10.5 -2
      vertex -103.333 -5.26 -2
    endloop
  endfacet
  facet normal 0 0 -1
    outer loop
      vertex 98.0933 -5.24 -2
      vertex 103.333 -0.00999928 -2
      vertex 103.333 -5.24 -2
    endloop
  endfacet
  facet normal -0 0 -1
    outer loop
      vertex 103.333 -0.00999928 -2
      vertex 98.0933 -5.24 -2
      vertex 98.0933 -0.00999928 -2
    endloop
  endfacet
  facet normal 0 0 -1
    outer loop
      vertex 98.0933 5.26 -2
      vertex 103.333 10.5 -2
      vertex 103.333 5.26 -2
    endloop
  endfacet
  facet normal 0 0 -1
    outer loop
      vertex 98.0933 -0.00999928 -2
      vertex -98.0933 0.00999928 -2
      vertex 98.0933 5.26 -2
    endloop
  endfacet
  facet normal 0 0 -1
    outer loop
      vertex -98.0933 5.24 -2
      vertex 98.0933 5.26 -2
      vertex -98.0933 0.00999928 -2
    endloop
  endfacet
  facet normal 0 0 -1
    outer loop
      vertex -98.0933 10.5 -2
      vertex 98.0933 5.26 -2
      vertex -98.0933 5.24 -2
    endloop
  endfacet
  facet normal 0 0 -1
    outer loop
      vertex 98.0933 5.26 -2
      vertex -98.0933 10.5 -2
      vertex 103.333 10.5 -2
    endloop
  endfacet
  facet normal -1 0 0
    outer loop
      vertex -103.333 -10.5 -2
      vertex -103.333 -5.26 2
      vertex -103.333 -5.26 -2
    endloop
  endfacet
  facet normal -1 -0 0
    outer loop
      vertex -103.333 -5.26 2
      vertex -103.333 -10.5 -2
      vertex -103.333 -10.5 2
    endloop
  endfacet
  facet normal -1 0 0
    outer loop
      vertex -103.333 0.00999928 -2
      vertex -103.333 5.24 2
      vertex -103.333 5.24 -2
    endloop
  endfacet
  facet normal -1 -0 0
    outer loop
      vertex -103.333 5.24 2
      vertex -103.333 0.00999928 -2
      vertex -103.333 0.00999928 2
    endloop
  endfacet
  facet normal 0 1 -0
    outer loop
      vertex 103.333 10.5 -2
      vertex -98.0933 10.5 2
      vertex 103.333 10.5 2
    endloop
  endfacet
  facet normal 0 1 0
    outer loop
      vertex -98.0933 10.5 2
      vertex 103.333 10.5 -2
      vertex -98.0933 10.5 -2
    endloop
  endfacet
  facet normal 0 -1 0
    outer loop
      vertex -103.333 -10.5 -2
      vertex 98.0933 -10.5 2
      vertex -103.333 -10.5 2
    endloop
  endfacet
  facet normal 0 -1 -0
    outer loop
      vertex 98.0933 -10.5 2
      vertex -103.333 -10.5 -2
      vertex 98.0933 -10.5 -2
    endloop
  endfacet
  facet normal -1 0 0
    outer loop
      vertex -98.0933 -26.26 -2
      vertex -98.0933 -21 2
      vertex -98.0933 -21 -2
    endloop
  endfacet
  facet normal -1 -0 0
    outer loop
      vertex -98.0933 -21 2
      vertex -98.0933 -26.26 -2
      vertex -98.0933 -26.26 2
    endloop
  endfacet
  facet normal 0 1 -0
    outer loop
      vertex -98.0933 -26.26 -2
      vertex -103.333 -26.26 2
      vertex -98.0933 -26.26 2
    endloop
  endfacet
  facet normal 0 1 0
    outer loop
      vertex -103.333 -26.26 2
      vertex -98.0933 -26.26 -2
      vertex -103.333 -26.26 -2
    endloop
  endfacet
  facet normal -1 0 0
    outer loop
      vertex -98.0933 -36.76 -2
      vertex -98.0933 -31.49 2
      vertex -98.0933 -31.49 -2
    endloop
  endfacet
  facet normal -1 -0 0
    outer loop
      vertex -98.0933 -31.49 2
      vertex -98.0933 -36.76 -2
      vertex -98.0933 -36.76 2
    endloop
  endfacet
  facet normal 0 1 -0
    outer loop
      vertex -98.0933 -36.76 -2
      vertex -103.333 -36.76 2
      vertex -98.0933 -36.76 2
    endloop
  endfacet
  facet normal 0 1 0
    outer loop
      vertex -103.333 -36.76 2
      vertex -98.0933 -36.76 -2
      vertex -103.333 -36.76 -2
    endloop
  endfacet
  facet normal 0 -1 0
    outer loop
      vertex -103.333 -31.49 -2
      vertex -98.0933 -31.49 2
      vertex -103.333 -31.49 2
    endloop
  endfacet
  facet normal 0 -1 -0
    outer loop
      vertex -98.0933 -31.49 2
      vertex -103.333 -31.49 -2
      vertex -98.0933 -31.49 -2
    endloop
  endfacet
  facet normal 1 -0 0
    outer loop
      vertex 103.333 -42 2
      vertex 103.333 -21 -2
      vertex 103.333 -21 2
    endloop
  endfacet
  facet normal 1 0 0
    outer loop
      vertex 103.333 -21 -2
      vertex 103.333 -42 2
      vertex 103.333 -42 -2
    endloop
  endfacet
  facet normal -0 0 1
    outer loop
      vertex -103.333 -26.26 2
      vertex -98.0933 -31.49 2
      vertex -98.0933 -26.26 2
    endloop
  endfacet
  facet normal 0 0 1
    outer loop
      vertex -98.0933 -31.49 2
      vertex -103.333 -26.26 2
      vertex -103.333 -31.49 2
    endloop
  endfacet
  facet normal 0 0 1
    outer loop
      vertex -98.0933 -26.26 2
      vertex 103.333 -21 2
      vertex -98.0933 -21 2
    endloop
  endfacet
  facet normal 0 0 1
    outer loop
      vertex -98.0933 -31.49 2
      vertex 103.333 -21 2
      vertex -98.0933 -26.26 2
    endloop
  endfacet
  facet normal 0 0 1
    outer loop
      vertex 103.333 -21 2
      vertex -98.0933 -31.49 2
      vertex 103.333 -42 2
    endloop
  endfacet
  facet normal -0 0 1
    outer loop
      vertex -98.0933 -36.76 2
      vertex 103.333 -42 2
      vertex -98.0933 -31.49 2
    endloop
  endfacet
  facet normal 0 0 1
    outer loop
      vertex -103.333 -42 2
      vertex -98.0933 -36.76 2
      vertex -103.333 -36.76 2
    endloop
  endfacet
  facet normal 0 0 1
    outer loop
      vertex -98.0933 -36.76 2
      vertex -103.333 -42 2
      vertex 103.333 -42 2
    endloop
  endfacet
  facet normal 0 0 -1
    outer loop
      vertex -103.333 -31.49 -2
      vertex -98.0933 -26.26 -2
      vertex -98.0933 -31.49 -2
    endloop
  endfacet
  facet normal -0 0 -1
    outer loop
      vertex -98.0933 -26.26 -2
      vertex -103.333 -31.49 -2
      vertex -103.333 -26.26 -2
    endloop
  endfacet
  facet normal 0 0 -1
    outer loop
      vertex -98.0933 -31.49 -2
      vertex 103.333 -42 -2
      vertex -98.0933 -36.76 -2
    endloop
  endfacet
  facet normal 0 0 -1
    outer loop
      vertex -103.333 -42 -2
      vertex -98.0933 -36.76 -2
      vertex 103.333 -42 -2
    endloop
  endfacet
  facet normal -0 0 -1
    outer loop
      vertex -98.0933 -36.76 -2
      vertex -103.333 -42 -2
      vertex -103.333 -36.76 -2
    endloop
  endfacet
  facet normal 0 0 -1
    outer loop
      vertex 103.333 -42 -2
      vertex -98.0933 -31.49 -2
      vertex 103.333 -21 -2
    endloop
  endfacet
  facet normal 0 0 -1
    outer loop
      vertex -98.0933 -26.26 -2
      vertex 103.333 -21 -2
      vertex -98.0933 -31.49 -2
    endloop
  endfacet
  facet normal -0 0 -1
    outer loop
      vertex 103.333 -21 -2
      vertex -98.0933 -26.26 -2
      vertex -98.0933 -21 -2
    endloop
  endfacet
  facet normal -1 0 0
    outer loop
      vertex -103.333 -42 -2
      vertex -103.333 -36.76 2
      vertex -103.333 -36.76 -2
    endloop
  endfacet
  facet normal -1 -0 0
    outer loop
      vertex -103.333 -36.76 2
      vertex -103.333 -42 -2
      vertex -103.333 -42 2
    endloop
  endfacet
  facet normal -1 0 0
    outer loop
      vertex -103.333 -31.49 -2
      vertex -103.333 -26.26 2
      vertex -103.333 -26.26 -2
    endloop
  endfacet
  facet normal -1 -0 0
    outer loop
      vertex -103.333 -26.26 2
      vertex -103.333 -31.49 -2
      vertex -103.333 -31.49 2
    endloop
  endfacet
  facet normal 0 1 -0
    outer loop
      vertex 103.333 -21 -2
      vertex -98.0933 -21 2
      vertex 103.333 -21 2
    endloop
  endfacet
  facet normal 0 1 0
    outer loop
      vertex -98.0933 -21 2
      vertex 103.333 -21 -2
      vertex -98.0933 -21 -2
    endloop
  endfacet
  facet normal 0 -1 0
    outer loop
      vertex -103.333 -42 -2
      vertex 103.333 -42 2
      vertex -103.333 -42 2
    endloop
  endfacet
  facet normal 0 -1 -0
    outer loop
      vertex 103.333 -42 2
      vertex -103.333 -42 -2
      vertex 103.333 -42 -2
    endloop
  endfacet
endsolid OpenSCAD_Model
